<svg xmlns="http://www.w3.org/2000/svg" width="1567.509" height="1340.203" viewBox="0 0 1567.509 1340.203">
  <g id="Group_3" data-name="Group 3" transform="translate(2864 -1452.035)">
    <line id="Line_9" data-name="Line 9" y1="713" x2="730" transform="translate(-2394.5 1577.5)" fill="none" stroke="#f0f3bd" stroke-width="5"/>
    <line id="Line_10" data-name="Line 10" y1="1078" x2="1112" transform="translate(-2636.5 1507.5)" fill="none" stroke="#f0f3bd" stroke-width="5"/>
    <line id="Line_11" data-name="Line 11" y1="743" x2="739" transform="translate(-2312.5 1633.5)" fill="none" stroke="#f0f3bd" stroke-width="5"/>
    <line id="Line_12" data-name="Line 12" x1="197" y2="337" transform="translate(-2547.5 1908.5)" fill="none" stroke="#f0f3bd" stroke-width="5"/>
    <path id="Path_1" data-name="Path 1" d="M58.161,281.234s-95.38-23.326-74.321-108.883C-18.945,151.27,2.227,120.509.982,99.677A878.328,878.328,0,0,1,.982,0" transform="translate(-2351.5 1908.5)" fill="none" stroke="#f0f3bd" stroke-width="5"/>
    <line id="Line_14" data-name="Line 14" y1="103" x2="258" transform="translate(-2805.5 2245.5)" fill="none" stroke="#f0f3bd" stroke-width="5"/>
    <path id="Path_4" data-name="Path 4" d="M0,227s.19-66.621,14.19-123.371S56,0,56,0" transform="translate(-2861.5 2348.5)" fill="#f0f3bd" stroke="#f0f3bd" stroke-width="5"/>
    <path id="Path_3" data-name="Path 3" d="M351.609,179.517s-110.985,59.509-203.126,22.406S0,0,0,0" transform="translate(-2861.5 2575.5)" fill="none" stroke="#f0f3bd" stroke-width="5"/>
    <path id="Path_6" data-name="Path 6" d="M115.391,0S69.773,51.043,40.925,112.037,0,243.976,0,243.976" transform="translate(-2509.891 2511.5)" fill="none" stroke="#f0f3bd" stroke-width="5"/>
    <path id="Path_5" data-name="Path 5" d="M251,0S173.21,3.038,110.46,16.038,0,52,0,52" transform="translate(-2394.5 2459.5)" fill="none" stroke="#f0f3bd" stroke-width="5"/>
    <line id="Line_19" data-name="Line 19" y1="108" x2="80" transform="translate(-2143.5 2351.5)" fill="none" stroke="#f0f3bd" stroke-width="5"/>
    <path id="Path_2" data-name="Path 2" d="M248.8.106S174.316-7.212,104.4,36.955,25.045.106,25.045.106" transform="translate(-2312.299 2351.679)" fill="none" stroke="#f0f3bd" stroke-width="5"/>
    <line id="Line_21" data-name="Line 21" y1="61" transform="translate(-1664.5 1516.5)" fill="none" stroke="#f0f3bd" stroke-width="5"/>
    <line id="Line_22" data-name="Line 22" y1="62" x2="366" transform="translate(-1664.5 1454.5)" fill="none" stroke="#f0f3bd" stroke-width="5"/>
    <line id="Line_23" data-name="Line 23" x1="123" y2="166" transform="translate(-1421.5 1454.5)" fill="none" stroke="#f0f3bd" stroke-width="5"/>
    <line id="Line_24" data-name="Line 24" x1="152" y2="13" transform="translate(-1573.5 1620.5)" fill="none" stroke="#f0f3bd" stroke-width="5"/>
    <line id="Line_25" data-name="Line 25" x1="1162" y2="1147" transform="translate(-2622.5 1494.5)" fill="none" stroke="#f0f3bd" stroke-width="5"/>
    <line id="Line_26" data-name="Line 26" x1="1095" y2="1054" transform="translate(-2681.5 1531.5)" fill="none" stroke="#f0f3bd" stroke-width="5"/>
    <path id="Path_7" data-name="Path 7" d="M314,0S169.707,66.385,91.759,139.843,0,334,0,334" transform="translate(-2861.5 2245.5)" fill="#f0f3bd" stroke="#f0f3bd" stroke-width="5"/>
  </g>
</svg>
